<?xml version="1.0" encoding="UTF-8" standalone="no"?>
<!-- Created for Onboard -->
<svg id="svg2" xmlns:rdf="http://www.w3.org/1999/02/22-rdf-syntax-ns#" xmlns="http://www.w3.org/2000/svg" height="95" width="238" version="1.0" xmlns:cc="http://creativecommons.org/ns#" xmlns:dc="http://purl.org/dc/elements/1.1/">
 <metadata id="metadata25">
  <rdf:RDF>
   <cc:Work rdf:about="">
    <dc:format>image/svg+xml</dc:format>
    <dc:type rdf:resource="http://purl.org/dc/dcmitype/StillImage"/>
   </cc:Work>
  </rdf:RDF>
 </metadata>
 <rect id="m0" style="stroke:#000;stroke-width:.86966;fill:#e5d8b2" height="20" width="50" y=".5" x="19.5"/>
 <rect id="m1" style="stroke:#000;stroke-width:.86581;fill:#e5d8b2" height="20" width="50" y=".5" x="75.5"/>
 <rect id="m2" style="stroke:#000;stroke-width:.86966;fill:#e5d8b2" height="20" width="50" y=".5" x="131.5"/>
 <rect id="m3" style="stroke:#000;stroke-width:.86581;fill:#e5d8b2" height="20" width="50" y=".5" x="187.5"/>
 <rect id="m4" style="stroke:#000;stroke-width:.86581;fill:#e5d8b2" height="20" width="50" y="25" x="19.5"/>
 <rect id="m5" style="stroke:#000;stroke-width:.86966;fill:#e5d8b2" height="20" width="50" y="25" x="75.5"/>
 <rect id="m6" style="stroke:#000;stroke-width:.86581;fill:#e5d8b2" height="20" width="50" y="25" x="131.5"/>
 <rect id="m7" style="stroke:#000;stroke-width:.86966;fill:#e5d8b2" height="20" width="50" y="25" x="187.5"/>
 <rect id="m8" style="stroke:#000;stroke-width:.86966;fill:#e5d8b2" height="20" width="50" y="50" x="19.5"/>
 <rect id="m9" style="stroke:#000;stroke-width:.86966;fill:#e5d8b2" height="20" width="50" y="50" x="75.5"/>
 <rect id="m10" style="stroke:#000;stroke-width:.86966;fill:#e5d8b2" height="20" width="50" y="50" x="131.5"/>
 <rect id="m11" style="stroke:#000;stroke-width:.86966;fill:#e5d8b2" height="20" width="50" y="50" x="187.5"/>
 <rect id="m12" style="stroke:#000;stroke-width:.86966;fill:#e5d8b2" height="20" width="50" y="74.5" x="19.5"/>
 <rect id="m13" style="stroke:#000;stroke-width:.86966;fill:#e5d8b2" height="20" width="50" y="74.5" x="75.5"/>
 <rect id="m14" style="stroke:#000;stroke-width:.86966;fill:#e5d8b2" height="20" width="50" y="74.5" x="131.5"/>
 <rect id="m15" style="stroke:#000;stroke-width:.86966;fill:#e5d8b2" height="20" width="50" y="74.5" x="187.5"/>
 <rect id="settings" height="20" width="18" y="50" x=".5"/>
 <rect id="quit" height="20" width="18" y="74.5" x=".5"/>
</svg>
